<svg xmlns="http://www.w3.org/2000/svg" xmlns:xlink="http://www.w3.org/1999/xlink" width="46" height="46" viewBox="0 0 46 46">
  <defs>
    <style>
      .cls-1 {
        fill: #3c4046;
      }

      .cls-2 {
        fill: none;
      }

      .cls-3 {
        clip-path: url(#clip-path);
      }

      .cls-4 {
        clip-path: url(#clip-path-2);
      }

      .cls-5 {
        fill: #fff;
      }
    </style>
    <clipPath id="clip-path">
      <rect id="사각형_247" data-name="사각형 247" class="cls-1" width="46" height="46" transform="translate(0.123 -0.218)"/>
    </clipPath>
    <clipPath id="clip-path-2">
      <rect id="사각형_246" data-name="사각형 246" class="cls-2" width="14.986" height="30.183"/>
    </clipPath>
  </defs>
  <g id="ico_pose_waiting_selected_46px" class="cls-3" transform="translate(-0.123 0.218)">
    <g id="그룹_125" data-name="그룹 125" transform="translate(15.651 7.825)">
      <g id="그룹_124" data-name="그룹 124" class="cls-4">
        <path id="패스_47" data-name="패스 47" class="cls-5" d="M14.97,12.022a4.073,4.073,0,0,0-.6-1.6,8.966,8.966,0,0,0-1.13-1.462,9.063,9.063,0,0,0-3.012-2.177,5.609,5.609,0,0,0-1.593-.3,3.329,3.329,0,1,0-2.159-.005,5.952,5.952,0,0,0-1.712.307A9.061,9.061,0,0,0,1.749,8.959,8.969,8.969,0,0,0,.619,10.42a4.071,4.071,0,0,0-.6,1.6c-.217,1.882,1.9,3.121,2.59,3.529.391.229.824.455,1.286.673v1.03L2.748,28.189a1.82,1.82,0,0,0,3.623.35l1.01-9.66a.142.142,0,0,1,.142-.128h.01a.142.142,0,0,1,.142.127l1.01,9.657a1.82,1.82,0,0,0,1.808,1.647c.059,0,.117,0,.177-.008a1.823,1.823,0,0,0,1.638-1.988l-1.14-10.894c0-.022,0-.044,0-.067V16.187c.433-.207.841-.421,1.209-.637.694-.407,2.807-1.646,2.59-3.528M4.851,3.328A2.709,2.709,0,1,1,7.559,6.037,2.712,2.712,0,0,1,4.851,3.328m7.215,11.687c-.4.236-.852.47-1.336.7l-.152.07c-.335.152-.562.243-.586.253a.948.948,0,1,1-.7-1.761,15.8,15.8,0,0,0,1.535-.733l.189-.106a6.823,6.823,0,0,0,1.072-.733.744.744,0,0,0,.153-.937c-.066-.111-.142-.229-.228-.349a7.072,7.072,0,0,0-.625-.75c-.043-.045-.086-.09-.13-.133a.414.414,0,0,0-.707.292v2.161L10.527,13a15.169,15.169,0,0,1-1.466.7,1.568,1.568,0,1,0,1.16,2.914c.018-.007.14-.056.329-.138v.754c0,.018,0,.034,0,.055l0,.026L11.69,28.248a1.2,1.2,0,1,1-2.388.226l-1.01-9.66a.761.761,0,0,0-.759-.683h-.01a.761.761,0,0,0-.759.684L5.753,28.477a1.2,1.2,0,0,1-2.388-.226L4.511,17.3v-.8c.139.06.229.1.253.105a1.56,1.56,0,0,0,.578.111h0A1.569,1.569,0,0,0,5.926,13.7a15.139,15.139,0,0,1-1.415-.672V10.748a.414.414,0,0,0-.7-.3q-.106.1-.208.212a7.085,7.085,0,0,0-.625.75c-.086.12-.163.238-.228.349A.745.745,0,0,0,2.9,12.7a7.051,7.051,0,0,0,1.148.776l.111.062a15.663,15.663,0,0,0,1.536.733A.948.948,0,0,1,5.344,16.1h0a.942.942,0,0,1-.349-.067c-.022-.009-.223-.089-.524-.225l-.141-.064c-.5-.232-.993-.485-1.411-.73C2.312,14.658.462,13.573.632,12.093a3.469,3.469,0,0,1,.519-1.352A8.349,8.349,0,0,1,2.2,9.384,8.429,8.429,0,0,1,4.992,7.357a7.4,7.4,0,0,1,2.539-.3,7.083,7.083,0,0,1,2.463.3,8.43,8.43,0,0,1,2.791,2.027,8.337,8.337,0,0,1,1.05,1.357,3.469,3.469,0,0,1,.519,1.352c.17,1.48-1.68,2.566-2.288,2.922m-.9-2.4V11.35c.124.143.236.286.336.425.075.105.142.207.2.3a.123.123,0,0,1-.026.155,4.765,4.765,0,0,1-.509.378M3.89,11.264v1.4a4.99,4.99,0,0,1-.582-.426.124.124,0,0,1-.027-.156c.056-.1.123-.2.2-.3a6.106,6.106,0,0,1,.411-.511" transform="translate(0 0.001)"/>
      </g>
    </g>
  </g>
</svg>
