<svg xmlns="http://www.w3.org/2000/svg" xmlns:xlink="http://www.w3.org/1999/xlink" width="46" height="46" viewBox="0 0 46 46">
  <defs>
    <style>
      .cls-1 {
        fill: #3c4046;
      }

      .cls-2 {
        fill: none;
      }

      .cls-3 {
        clip-path: url(#clip-path);
      }

      .cls-4 {
        clip-path: url(#clip-path-2);
      }

      .cls-5 {
        fill: #fff;
      }
    </style>
    <clipPath id="clip-path">
      <rect id="사각형_250" data-name="사각형 250" class="cls-1" width="46" height="46" transform="translate(-0.038 -0.218)"/>
    </clipPath>
    <clipPath id="clip-path-2">
      <rect id="사각형_249" data-name="사각형 249" class="cls-2" width="16.51" height="30.183"/>
    </clipPath>
  </defs>
  <g id="ico_pose_left_selected_46px" class="cls-3" transform="translate(0.038 0.218)">
    <g id="그룹_126" data-name="그룹 126" class="cls-4" transform="translate(13.415 7.825)">
      <path id="패스_48" data-name="패스 48" class="cls-5" d="M89.6,3.327a3.327,3.327,0,1,0-3.327,3.327A3.331,3.331,0,0,0,89.6,3.327m-.62,0A2.707,2.707,0,1,1,86.274.62,2.71,2.71,0,0,1,88.98,3.327" transform="translate(-75.598)"/>
      <path id="패스_49" data-name="패스 49" class="cls-5" d="M.362,81.827a1.547,1.547,0,0,0,1.058.557c.233.021.468.03.7.03a12.732,12.732,0,0,0,2.983-.4l.018-.005a3.445,3.445,0,0,0,1.6-1.3h0a3.335,3.335,0,0,0,.288-.445v16.2A1.818,1.818,0,0,0,8.826,98.28h.052a1.847,1.847,0,0,0,1.767-1.849V86.878a.044.044,0,0,1,.044-.044.046.046,0,0,1,.052.039l1.019,9.74a1.818,1.818,0,0,0,3.62-.349c-.012-.1-1.1-9.271-1.1-10.954V82.353a3.769,3.769,0,0,0,1.005-.387,2.434,2.434,0,0,0,1.2-1.86c0-.016,0-.026,0-.035a6,6,0,0,0-2.251-4.689,3.615,3.615,0,0,0-2.745-.627c-.218.008-.443.017-.662.017l-.826-.021H10c-.22,0-.445-.009-.662-.017a3.628,3.628,0,0,0-2.736.619,5.5,5.5,0,0,0-1.4,1.7h0l0,.006a9.365,9.365,0,0,1-1.081,1.888l-.017.023a.52.52,0,0,1-.266.156,6.2,6.2,0,0,1-2.119.133A1.568,1.568,0,0,0,.362,81.827m.262-1.093a.95.95,0,0,1,1.033-.853,6.837,6.837,0,0,0,2.334-.151,1.125,1.125,0,0,0,.611-.393,9.974,9.974,0,0,0,1.155-2,4.945,4.945,0,0,1,1.234-1.5l.018-.015a3.075,3.075,0,0,1,2.307-.469c.221.008.449.017.678.017h0l.833.021h0c.238,0,.468-.009.69-.017a3.074,3.074,0,0,1,2.307.469A5.453,5.453,0,0,1,15.876,80l0,.029a1.826,1.826,0,0,1-.893,1.4,3.353,3.353,0,0,1-1.062.369,8.582,8.582,0,0,1-2.341.042c-.381-.037-.781-.09-1.189-.159-.468-.079-.769-.149-.772-.149a.947.947,0,1,1,.424-1.846,15.075,15.075,0,0,0,1.718.269,10.6,10.6,0,0,0,2.169-.011,2.2,2.2,0,0,0,.278-.05.31.31,0,0,0-.162-.6,1.562,1.562,0,0,1-.2.034,10.106,10.106,0,0,1-2.03.009,14.482,14.482,0,0,1-1.639-.256,1.567,1.567,0,0,0-.7,3.054s.322.074.809.157c.422.071.837.127,1.233.165.422.04.821.061,1.184.061a7.95,7.95,0,0,0,.963-.056V85.31c0,1.72,1.054,10.642,1.1,11.02a1.2,1.2,0,0,1-1.079,1.3,1.2,1.2,0,0,1-1.307-1.079l-1.019-9.743a.662.662,0,0,0-.66-.595h0a.666.666,0,0,0-.672.664v9.553A1.222,1.222,0,0,1,8.861,97.66a1.2,1.2,0,0,1-1.232-1.2V79.467a.5.5,0,0,0-.2-.442.409.409,0,0,0-.323-.048.47.47,0,0,0-.295.252.283.283,0,0,0-.013.029,5.428,5.428,0,0,1-.572,1.072l0,0,0,0A2.876,2.876,0,0,1,4.932,81.42a11.536,11.536,0,0,1-3.457.346.931.931,0,0,1-.636-.335.944.944,0,0,1-.215-.7" transform="translate(0 -68.097)"/>
    </g>
  </g>
</svg>
