<svg xmlns="http://www.w3.org/2000/svg" xmlns:xlink="http://www.w3.org/1999/xlink" width="46" height="46" viewBox="0 0 46 46">
  <defs>
    <clipPath id="clip-path">
      <rect id="사각형_260" data-name="사각형 260" width="46" height="46" transform="translate(0.198 -0.218)" fill="#3c4046"/>
    </clipPath>
    <clipPath id="clip-path-2">
      <rect id="사각형_259" data-name="사각형 259" width="24.515" height="30.183" fill="none"/>
    </clipPath>
  </defs>
  <g id="ico_pose_openhands_selected_46px" transform="translate(-0.198 0.218)" clip-path="url(#clip-path)">
    <g id="그룹_128" data-name="그룹 128" transform="translate(10.62 7.825)" clip-path="url(#clip-path-2)">
      <path id="패스_52" data-name="패스 52" d="M24.292,7.469a1.579,1.579,0,0,0-2.887.418,4.677,4.677,0,0,1-1.442,1.842,8.544,8.544,0,0,1-1.344.988.27.27,0,0,1-.318-.035,9.39,9.39,0,0,1-1.2-1.393c-.631-.858-1.121-1.688-1.142-1.722a1.57,1.57,0,0,0-.389-.445,2.858,2.858,0,0,0-1.887-.764,3.351,3.351,0,1,0-2.951.007,2.586,2.586,0,0,0-1.944.89,1.58,1.58,0,0,0-.24.311c0,.008-.5.852-1.142,1.723a9.385,9.385,0,0,1-1.2,1.393.27.27,0,0,1-.318.035,8.529,8.529,0,0,1-1.344-.988A4.674,4.674,0,0,1,3.109,7.887a1.579,1.579,0,1,0-3.06.779,7.582,7.582,0,0,0,2.409,3.427,8.86,8.86,0,0,0,3.106,1.9,2.247,2.247,0,0,0,.55.069A3.607,3.607,0,0,0,8.569,12.8V17.14c0,.022,0,.043,0,.067L7.424,28.177a1.832,1.832,0,0,0,1.649,2c.059.006.118.008.176.008a1.834,1.834,0,0,0,1.822-1.655L12.088,18.8a.143.143,0,0,1,.142-.128h.011a.143.143,0,0,1,.142.128L13.4,28.526a1.832,1.832,0,1,0,3.647-.352l-1.15-11c0-.012,0-.024,0-.036V12.758a3.658,3.658,0,0,0,2.5,1.3,2.245,2.245,0,0,0,.55-.068,8.86,8.86,0,0,0,3.107-1.9,7.58,7.58,0,0,0,2.409-3.427,1.568,1.568,0,0,0-.173-1.2M9.478,3.352A2.727,2.727,0,1,1,12.2,6.079,2.73,2.73,0,0,1,9.478,3.352m14.382,5.16a6.991,6.991,0,0,1-2.218,3.114,8.251,8.251,0,0,1-2.845,1.76c-.825.208-1.708-.234-2.736-1.362a.452.452,0,0,0-.787.3v4.811l0,.056,1.155,11.041a1.207,1.207,0,1,1-2.4.227l-1.017-9.725a.766.766,0,0,0-.764-.688h-.011a.766.766,0,0,0-.764.688l-1.017,9.728a1.207,1.207,0,0,1-2.4-.227L9.2,17.247l0-.032,0-.025c0-.016,0-.032,0-.049V12.379a.452.452,0,0,0-.785-.307C7.4,13.164,6.532,13.59,5.718,13.385a8.251,8.251,0,0,1-2.845-1.76A6.992,6.992,0,0,1,.655,8.511.954.954,0,0,1,2.5,8.041,5.243,5.243,0,0,0,4.137,10.2a9.176,9.176,0,0,0,1.445,1.061.894.894,0,0,0,1.05-.112A10.174,10.174,0,0,0,7.914,9.659c.659-.9,1.156-1.741,1.177-1.777a.961.961,0,0,1,.161-.2l.027-.027.02-.032c.447-.712,2.318-.712,2.934-.712,1.586,0,2.528.209,2.881.64l.024.03.031.023a.95.95,0,0,1,.254.284c.021.036.527.892,1.177,1.775a10.155,10.155,0,0,0,1.281,1.487.894.894,0,0,0,1.05.112A9.191,9.191,0,0,0,20.377,10.2,5.244,5.244,0,0,0,22.01,8.041a.954.954,0,0,1,1.16-.689h0a.954.954,0,0,1,.689,1.16" transform="translate(0)" fill="#fff"/>
    </g>
  </g>
</svg>
