<svg xmlns="http://www.w3.org/2000/svg" xmlns:xlink="http://www.w3.org/1999/xlink" width="45" height="46" viewBox="0 0 45 46">
  <defs>
    <style>
      .cls-1 {
        fill: #3c4046;
      }

      .cls-2 {
        fill: none;
      }

      .cls-3 {
        clip-path: url(#clip-path);
      }

      .cls-4 {
        clip-path: url(#clip-path-2);
      }

      .cls-5 {
        fill: #fff;
      }
    </style>
    <clipPath id="clip-path">
      <rect id="사각형_255" data-name="사각형 255" class="cls-1" width="45" height="46" transform="translate(0.359 -0.218)"/>
    </clipPath>
    <clipPath id="clip-path-2">
      <rect id="사각형_254" data-name="사각형 254" class="cls-2" width="16.51" height="30.183"/>
    </clipPath>
  </defs>
  <g id="ico_pose_right_selected_46px" class="cls-3" transform="translate(-0.359 0.218)">
    <g id="그룹_127" data-name="그룹 127" class="cls-4" transform="translate(16.769 7.825)">
      <path id="패스_50" data-name="패스 50" class="cls-5" d="M31.627,6.654A3.327,3.327,0,1,0,28.3,3.327a3.331,3.331,0,0,0,3.327,3.327m0-6.033A2.707,2.707,0,1,1,28.92,3.327,2.71,2.71,0,0,1,31.627.62" transform="translate(-25.793)"/>
      <path id="패스_51" data-name="패스 51" class="cls-5" d="M16.5,80.676A1.572,1.572,0,0,0,14.8,79.265a6.2,6.2,0,0,1-2.119-.133.52.52,0,0,1-.266-.156l-.017-.023a9.365,9.365,0,0,1-1.081-1.888l0-.006h0a5.5,5.5,0,0,0-1.4-1.7,3.627,3.627,0,0,0-2.736-.619c-.218.008-.443.017-.662.017H6.5l-.826.021c-.22,0-.445-.009-.662-.017a3.615,3.615,0,0,0-2.745.626,6,6,0,0,0-2.251,4.69c0,.01,0,.019,0,.035a2.433,2.433,0,0,0,1.2,1.86,3.766,3.766,0,0,0,1.005.387v2.957c0,1.684-1.084,10.855-1.1,10.954a1.818,1.818,0,0,0,3.62.349l1.019-9.74a.046.046,0,0,1,.052-.039.044.044,0,0,1,.044.043v9.553a1.847,1.847,0,0,0,1.768,1.849h.052A1.819,1.819,0,0,0,9.5,96.463v-16.2a3.344,3.344,0,0,0,.288.445h0a3.445,3.445,0,0,0,1.6,1.3l.018.005a12.733,12.733,0,0,0,2.983.4c.233,0,.468-.009.7-.03A1.565,1.565,0,0,0,16.5,80.676m-.832.756a.93.93,0,0,1-.636.335,11.533,11.533,0,0,1-3.457-.346,2.876,2.876,0,0,1-1.291-1.081l0,0,0,0a5.426,5.426,0,0,1-.572-1.072c0-.01-.008-.02-.013-.029a.471.471,0,0,0-.295-.252.409.409,0,0,0-.323.048.5.5,0,0,0-.2.442V96.463a1.2,1.2,0,0,1-1.232,1.2,1.222,1.222,0,0,1-1.164-1.229V86.879a.666.666,0,0,0-.672-.664h0a.662.662,0,0,0-.66.595L4.133,96.553a1.2,1.2,0,0,1-2.117.648,1.187,1.187,0,0,1-.269-.87c.045-.379,1.1-9.3,1.1-11.02V82.464a7.968,7.968,0,0,0,.963.056c.364,0,.762-.02,1.184-.061.4-.038.811-.093,1.233-.165.486-.082.806-.156.809-.157a1.567,1.567,0,0,0-.7-3.054,14.514,14.514,0,0,1-1.639.256,10.1,10.1,0,0,1-2.03-.009,1.57,1.57,0,0,1-.2-.034.31.31,0,0,0-.162.6,2.232,2.232,0,0,0,.278.05,10.6,10.6,0,0,0,2.169.011,15.074,15.074,0,0,0,1.718-.269.947.947,0,1,1,.424,1.846s-.3.07-.772.149c-.408.069-.808.122-1.189.159A8.586,8.586,0,0,1,2.593,81.8a3.353,3.353,0,0,1-1.062-.369,1.826,1.826,0,0,1-.893-1.4l0-.029a5.453,5.453,0,0,1,2.048-4.158,3.073,3.073,0,0,1,2.307-.469c.222.009.452.017.69.017h0l.833-.021h0c.229,0,.457-.009.678-.017a3.074,3.074,0,0,1,2.307.469l.018.015a4.947,4.947,0,0,1,1.234,1.5,9.978,9.978,0,0,0,1.154,2,1.125,1.125,0,0,0,.611.393,6.837,6.837,0,0,0,2.334.151.948.948,0,0,1,.818,1.55" transform="translate(0 -68.098)"/>
    </g>
  </g>
</svg>
