<svg xmlns="http://www.w3.org/2000/svg" width="272.695" height="45" viewBox="0 0 272.695 45">
    <defs>
        <linearGradient id="tvzytmhhka" x2="1" y2="1" gradientUnits="objectBoundingBox">
            <stop offset="0" stop-color="#fd9283"/>
            <stop offset=".315" stop-color="#f56fae"/>
            <stop offset=".67" stop-color="#c15eee"/>
            <stop offset="1" stop-color="#6769ff"/>
        </linearGradient>
    </defs>
    <path d="M4.55 6.48h7.793v-18.106c0-4.1-.7-10.137-1.113-14.238h.234l3.457 10.2 6.738 18.218h4.98l6.68-18.223 3.516-10.2h.293c-.469 4.1-1.113 10.137-1.113 14.238V6.48h7.91v-43.418h-9.609l-7.207 20.332c-.937 2.7-1.7 5.566-2.637 8.32h-.293c-.879-2.754-1.7-5.625-2.637-8.32l-7.383-20.332H4.55zm75.117.82C89.687 7.3 95.6 1.265 95.6-5.825c0-6.27-3.457-9.609-8.73-11.777L81.191-20c-3.691-1.465-6.738-2.578-6.738-5.684 0-2.871 2.4-4.57 6.211-4.57a13.832 13.832 0 0 1 9.2 3.574l4.395-5.449A19.242 19.242 0 0 0 80.663-37.7c-8.789 0-15 5.449-15 12.539 0 6.328 4.395 9.844 8.789 11.66l5.8 2.461c3.867 1.641 6.5 2.637 6.5 5.859 0 3.047-2.4 4.98-6.914 4.98-3.809 0-7.91-1.934-11.016-4.8L63.847.972A23.106 23.106 0 0 0 79.667 7.3zm30.293-.82h8.672v-36.153h12.3v-7.266H97.773v7.266h12.187zm44.062.82c10.605 0 16.758-5.918 16.758-20.332v-23.906h-8.32v24.668c0 9.023-3.281 12.07-8.437 12.07-5.039 0-8.2-3.047-8.2-12.07v-24.668h-8.672v23.906C137.148 1.382 143.476 7.3 154.023 7.3zm26.6-.82h12.363c12.773 0 20.977-7.266 20.977-21.855 0-14.648-8.2-21.562-21.445-21.562h-11.893zM189.3-.493v-29.473h2.7c8.086 0 13.125 3.984 13.125 14.59 0 10.547-5.039 14.883-13.125 14.883zm32.574 6.973h8.672v-43.418h-8.672zm35.977.82c11.484 0 19.395-8.613 19.395-22.676S269.335-37.7 257.851-37.7s-19.395 8.2-19.395 22.324c0 14.063 7.91 22.676 19.395 22.676zm0-7.5c-6.446 0-10.551-5.918-10.551-15.176 0-9.316 4.1-14.883 10.547-14.883S268.4-24.692 268.4-15.376C268.4-6.118 264.3-.2 257.851-.2z" transform="translate(-4.55 37.7)" style="fill:url(#tvzytmhhka)"/>
</svg>
